<?xml version="1.0" encoding="utf-8"?>
<svg fill="#000000" width="400px" height="400px" viewBox="0 0 24 24" data-name="Layer 1"
    xmlns="http://www.w3.org/2000/svg" xmlns:bx="https://boxy-svg.com">
    <defs>
        <bx:export>
            <bx:file format="svg" path="pami-icon.svg" />
        </bx:export>
        <!--Define
        the mask-->
        <mask id="myMask">
            <!--Areas
            filled with black will create transparent holes-->
            <rect width="100%" height="100%" fill="white" />
            <circle cx="9" cy="11.5" r="1.5" fill="black" />
            <circle cx="15" cy="11.5" r="1.5" fill="black" />
            <path d="M 8.5 16.971 C 10.834 18.343 13.166 18.343 15.5 16.971" fill="none"
                stroke="black" stroke-width="1" />
        </mask>
    </defs>
    <!--Apply
    the mask to the robot body-->
    <path d="M17,7H7a3,3,0,0,0-3,3v9a3,3,0,0,0,3,3H17a3,3,0,0,0,3-3V10A3,3,0,0,0,17,7Z"
        fill="#000000" mask="url(#myMask)" />
    <!--Other
    robot details (antennas, wheels, etc.)-->
    <path d="M2,14a1,1,0,0,0-1,1v2a1,1,0,0,0,2,0v-2A1,1,0,0,0,2,14Z" />
    <path d="M22,14a1,1,0,0,0-1,1v2a1,1,0,0,0,2,0v-2A1,1,0,0,0,22,14Z" />
    <path d="M14,5.72V7H10V5.72A2,2,0,1,1,14,5.72Z" />
    <path
        d="M18,19a1,1,0,0,1-1,1H7a1,1,0,0,1-1-1V10a1,1,0,0,1,1-1H8.22L9,12.24A1,1,0,0,0,10,13h4a1,1,0,0,0,1-.76L15.78,9H17a1,1,0,0,1,1,1Z"
        fill="none" />
</svg>